<svg width="141" height="151" viewBox="0 0 141 151" fill="none" xmlns="http://www.w3.org/2000/svg">
    <path d="M113.954 84.9477C116.834 74.6233 119.138 64.1386 120.866 53.5578C122.626 49.5499 124.609 45.6381 126.785 41.8547C129.473 37.2055 132.641 32.909 135.585 28.4202C138.209 24.4123 140.577 19.9876 140.865 15.146C141.089 11.3626 140.257 7.29053 137.729 4.34071C134.945 1.07026 130.657 -0.212266 126.465 0.172493C121.922 0.557251 117.794 2.96199 114.274 5.75149C110.466 8.7975 106.914 12.2603 103.554 15.7552C97.0585 22.5206 91.2987 29.9913 86.3389 37.943C82.6911 36.5322 79.1712 34.8328 75.6513 33.1656C70.5315 30.7287 65.3477 28.5805 59.8439 27.1377C50.0203 24.5726 38.9487 23.5786 29.3171 27.3621C20.6134 30.7929 13.2857 38.6163 13.1577 48.3635C13.0937 52.2111 14.2137 55.5777 16.0696 58.5276C12.1017 60.7079 8.74187 63.818 6.66195 67.9221C4.55003 72.0903 4.13404 77.1884 5.86198 81.549C6.50195 83.1521 7.39791 84.595 8.48587 85.8775C5.25399 88.8273 2.34211 92.5787 0.998156 96.779C-0.281795 100.755 0.454175 104.763 2.5661 108.322C3.17407 109.316 3.87805 110.246 4.64602 111.143C1.09415 114.253 -0.0578037 119.352 0.998156 123.904C2.21411 129.259 6.11797 133.427 10.3098 136.73C13.5417 139.263 16.9976 141.539 20.5814 143.559C22.3734 144.681 24.2613 145.74 26.1492 146.701C28.1651 147.695 30.2771 148.625 32.421 149.266C33.8929 149.715 35.3969 150.1 36.9008 150.293C37.9248 150.421 38.9487 150.485 39.9727 150.453C40.4847 150.453 40.9966 150.421 41.4766 150.357C42.8846 150.228 44.2925 149.844 45.6685 149.395C46.6284 149.074 47.5564 148.657 48.4524 148.144C49.1563 147.76 49.8603 147.343 50.5003 146.894C54.5321 147.856 58.628 148.401 62.7878 148.337C71.6515 148.176 79.9712 144.585 86.6909 138.846C94.0826 132.562 99.2985 124.193 103.266 115.408C107.714 105.661 111.042 95.3041 113.954 84.9477Z" fill="#EF9E81"/>
</svg>
